<svg width="30" height="32" viewBox="0 0 30 32" fill="none" xmlns="http://www.w3.org/2000/svg">
<path fill-rule="evenodd" clip-rule="evenodd" d="M5.44219 5.39787C6.03458 4.78722 6.36297 3.96805 6.35634 3.11728C6.32551 2.292 5.98057 1.50967 5.39209 0.93024C4.80361 0.350809 4.01602 0.0180521 3.19035 0C2.36226 0.0177213 1.57191 0.349655 0.979472 0.928512C0.387049 1.50737 0.036896 2.28983 0 3.11728C0.0119177 3.96658 0.349655 4.77881 0.94341 5.38617C1.53716 5.99353 2.34155 6.34955 3.19035 6.38071C4.04091 6.36153 4.84978 6.0085 5.44219 5.39787ZM2.59746 10.5851C1.25689 10.5548 0.340953 10.534 0.340953 12.1769V30.4423C0.340953 32.0512 1.21437 32.0178 2.473 31.9701C2.7005 31.9614 2.94057 31.9522 3.19035 31.9522C3.44059 31.9522 3.6805 31.9614 3.9074 31.9701C5.16 32.0178 6.0154 32.0505 6.0154 30.4423V12.1769C6.0154 10.5344 5.11854 10.5548 3.78306 10.5851C3.59387 10.5894 3.39586 10.5939 3.19035 10.5939C2.98516 10.5939 2.78706 10.5894 2.59746 10.5851ZM11.9333 10.6183C11.3245 10.7401 10.9349 11.1297 10.9349 12.1769V30.4423C10.9349 32.0496 11.7718 32.0181 13.0327 31.9701C13.2619 31.9614 13.5051 31.9522 13.7599 31.9522C14.0142 31.9522 14.2576 31.9614 14.4874 31.9701C15.7543 32.0181 16.6093 32.0503 16.6093 30.4423V20.7008C16.5608 20.203 16.6187 19.7006 16.779 19.2268C16.9393 18.7531 17.1984 18.3188 17.5392 17.9527C17.8799 17.5866 18.2946 17.2971 18.7556 17.1033C19.2167 16.9095 19.7137 16.8158 20.2137 16.8285C20.716 16.7987 21.2188 16.8774 21.6881 17.0592C22.1573 17.2409 22.5818 17.5216 22.9331 17.8819C23.2842 18.2424 23.5537 18.6741 23.7233 19.1479C23.8926 19.6216 23.9582 20.1264 23.9155 20.6277V30.3691C23.9155 31.9767 24.7525 31.9449 26.0133 31.8971C26.2426 31.8885 26.4858 31.8791 26.7404 31.8791C26.9953 31.8791 27.2385 31.8885 27.4677 31.8971C28.7285 31.9449 29.5656 31.9767 29.5656 30.3691V17.9001C29.612 16.8763 29.4424 15.8542 29.0677 14.9003C28.6933 13.9463 28.1224 13.0818 27.3921 12.3629C26.6616 11.644 25.7882 11.0868 24.8284 10.7275C23.8686 10.3682 22.844 10.2148 21.8211 10.2773C20.7793 10.1826 19.7307 10.3568 18.7756 10.7832C17.8205 11.2096 16.9907 11.874 16.3658 12.7127C16.3901 11.8116 16.0978 10.6183 15.3672 10.6183C15.1578 10.6183 14.8361 10.6083 14.4695 10.5969C13.5577 10.5685 12.3676 10.5315 11.9333 10.6183Z" fill="#47423F"/>
</svg>
