<svg width="50" height="48" viewBox="0 0 50 48" fill="none" xmlns="http://www.w3.org/2000/svg">
<path fill-rule="evenodd" clip-rule="evenodd" d="M13.2638 0.865272C13.4124 0.352636 13.881 0 14.4136 0H24.3216C24.7643 0 25.1709 0.244826 25.3787 0.636572L29.6697 8.72396C30.0938 9.52324 29.5158 10.4874 28.6126 10.4874H21.4195C20.5281 10.4874 19.9492 11.4288 20.35 12.2269L29.6738 30.7944C29.8791 31.2032 29.8346 31.6934 29.5589 32.0582L25.7977 37.037C25.5714 37.3366 25.2181 37.5126 24.8432 37.5126H8.83767C8.3105 37.5126 7.84539 37.8582 7.69209 38.3637L5.02851 47.1488C4.87526 47.6544 4.41011 48 3.88294 48H1.19804C0.400397 48 -0.174226 47.2328 0.0482697 46.4652L13.2638 0.865272ZM31.3395 11.9347C31.1324 11.5406 30.7247 11.2941 30.2803 11.2941H23.0272C22.1315 11.2941 21.5529 12.2438 21.9621 13.0423L31.0619 30.8018C31.2693 31.2065 31.2305 31.6938 30.9617 32.0605L20.6782 46.0896C20.0973 46.882 20.6619 48 21.6431 48H22.0426C22.4279 48 22.7896 47.8144 23.0145 47.5008L31.6974 35.4062C32.208 34.695 33.2823 34.7542 33.712 35.5173L40.3971 47.3896C40.6094 47.7668 41.0077 48 41.4399 48H48.3024C49.202 48 49.7795 47.044 49.3612 46.2456C47.5377 42.768 43.6134 35.2953 39.6094 27.6739C39.4002 27.2757 39.4308 26.7936 39.6888 26.4253L44.5844 19.4357C45.1412 18.6405 44.5736 17.5462 43.6042 17.5462H43.1409C42.7565 17.5462 42.3965 17.73 42.1715 18.0419C40.508 20.3484 37.7662 24.1655 37.7852 24.2017C35.4132 19.6869 33.1221 15.3268 31.3395 11.9347ZM33.7221 37.9833C33.2925 37.2074 32.2003 37.1511 31.6935 37.8787L25.9578 46.1132C25.4037 46.9084 25.9716 48 26.9395 48H37.2348C38.1475 48 38.7246 47.0176 38.2817 46.2176L33.7221 37.9833ZM16.5146 15.6693C16.1995 14.5114 14.571 14.4831 14.216 15.6294L9.35737 31.3182C9.11819 32.0905 9.69405 32.874 10.5008 32.874H19.6292C20.4187 32.874 20.9921 32.1216 20.7843 31.3582L16.5146 15.6693Z" fill="#F26A1B"/>
</svg>
