<svg width="188" height="50" viewBox="0 0 188 50" fill="none" xmlns="http://www.w3.org/2000/svg">
  <path fill-rule="evenodd" clip-rule="evenodd"
    d="M13.2638 0.865272C13.4124 0.352636 13.881 0 14.4136 0H24.3216C24.7643 0 25.1709 0.244826 25.3787 0.636572L29.6697 8.72396C30.0938 9.52324 29.5158 10.4874 28.6126 10.4874H21.4195C20.5281 10.4874 19.9492 11.4288 20.35 12.2269L29.6738 30.7944C29.8791 31.2032 29.8346 31.6934 29.5589 32.0582L25.7977 37.037C25.5714 37.3366 25.2181 37.5126 24.8432 37.5126H8.83767C8.3105 37.5126 7.84539 37.8582 7.69209 38.3637L5.02851 47.1488C4.87526 47.6544 4.41011 48 3.88294 48H1.19804C0.400397 48 -0.174226 47.2328 0.0482697 46.4652L13.2638 0.865272ZM31.3395 11.9347C31.1324 11.5406 30.7247 11.2941 30.2803 11.2941H23.0272C22.1315 11.2941 21.5529 12.2438 21.9621 13.0423L31.0619 30.8018C31.2693 31.2065 31.2305 31.6938 30.9617 32.0605L20.6782 46.0896C20.0973 46.882 20.6619 48 21.6431 48H22.0426C22.4279 48 22.7896 47.8144 23.0145 47.5008L31.6974 35.4062C32.208 34.695 33.2823 34.7542 33.712 35.5173L40.3971 47.3896C40.6094 47.7668 41.0077 48 41.4399 48H48.3024C49.202 48 49.7795 47.044 49.3612 46.2456C47.5377 42.768 43.6134 35.2953 39.6094 27.6739C39.4002 27.2757 39.4308 26.7936 39.6888 26.4253L44.5844 19.4357C45.1412 18.6405 44.5736 17.5462 43.6042 17.5462H43.1409C42.7565 17.5462 42.3965 17.73 42.1715 18.0419C40.508 20.3484 37.7662 24.1655 37.7852 24.2017C35.4132 19.6869 33.1221 15.3268 31.3395 11.9347ZM33.7221 37.9833C33.2925 37.2074 32.2003 37.1511 31.6935 37.8787L25.9578 46.1132C25.4037 46.9084 25.9716 48 26.9395 48H37.2348C38.1475 48 38.7246 47.0176 38.2817 46.2176L33.7221 37.9833ZM16.5146 15.6693C16.1995 14.5114 14.571 14.4831 14.216 15.6294L9.35737 31.3182C9.11819 32.0905 9.69405 32.874 10.5008 32.874H19.6292C20.4187 32.874 20.9921 32.1216 20.7843 31.3582L16.5146 15.6693Z"
    fill="#F26A1B" />
  <path
    d="M75.44 29.908H66.016L64.534 33.936C64.23 34.8733 63.698 35.342 62.938 35.342C62.5327 35.342 62.1653 35.2027 61.836 34.924C61.532 34.62 61.38 34.2653 61.38 33.86C61.38 33.708 61.3927 33.556 61.418 33.404C61.4687 33.2267 61.5193 33.0493 61.57 32.872L68.6 13.834C68.8533 13.2007 69.1447 12.7447 69.474 12.466C69.8033 12.162 70.234 12.01 70.766 12.01C71.2727 12.01 71.6907 12.162 72.02 12.466C72.3493 12.7447 72.628 13.188 72.856 13.796L79.924 32.796C80.0507 33.1507 80.114 33.4927 80.114 33.822C80.114 34.2273 79.9493 34.582 79.62 34.886C79.316 35.19 78.9487 35.342 78.518 35.342C77.758 35.342 77.2007 34.8607 76.846 33.898L75.44 29.908ZM74.604 27.172L70.766 16.494L66.852 27.172H74.604ZM87.8173 30.63L91.1613 21.282C91.4653 20.446 91.9846 20.028 92.7193 20.028C93.074 20.028 93.4033 20.1673 93.7073 20.446C94.0113 20.6993 94.1633 21.0033 94.1633 21.358C94.1633 21.6113 94.0873 21.928 93.9353 22.308L89.5273 33.746C89.2993 34.3033 89.0333 34.7087 88.7293 34.962C88.4506 35.19 88.0833 35.304 87.6273 35.304C87.1713 35.304 86.7913 35.1773 86.4873 34.924C86.2086 34.6707 85.9553 34.278 85.7273 33.746L81.4333 22.498C81.3826 22.2953 81.332 22.118 81.2813 21.966C81.256 21.7887 81.2433 21.624 81.2433 21.472C81.2433 21.0667 81.3953 20.7247 81.6993 20.446C82.0286 20.1673 82.396 20.028 82.8013 20.028C83.5613 20.028 84.1186 20.484 84.4733 21.396L87.8173 30.63ZM100.161 22.194C101.453 20.8513 103.074 20.18 105.025 20.18C105.43 20.18 105.76 20.3067 106.013 20.56C106.266 20.8133 106.393 21.1427 106.393 21.548C106.393 22.1053 106.241 22.4727 105.937 22.65C105.633 22.8273 105.215 22.954 104.683 23.03C103.112 23.2073 102.01 23.6887 101.377 24.474C100.769 25.2593 100.465 26.602 100.465 28.502V33.442C100.465 34.0247 100.326 34.4933 100.047 34.848C99.7684 35.1773 99.3757 35.342 98.8691 35.342C98.3877 35.342 98.0077 35.1773 97.7291 34.848C97.4504 34.4933 97.3111 34.0247 97.3111 33.442V21.396C97.3111 20.9653 97.4377 20.6233 97.6911 20.37C97.9697 20.1167 98.3244 19.99 98.7551 19.99C99.1351 19.99 99.4391 20.1293 99.6671 20.408C99.8951 20.6867 100.06 21.282 100.161 22.194ZM110.762 28.35V28.958C110.762 30.2753 111.079 31.2507 111.712 31.884C112.345 32.492 113.333 32.796 114.676 32.796C115.411 32.796 116.12 32.72 116.804 32.568C117.488 32.416 118.096 32.188 118.628 31.884C118.831 31.7827 118.995 31.732 119.122 31.732C119.477 31.732 119.768 31.8587 119.996 32.112C120.249 32.3653 120.376 32.6693 120.376 33.024C120.376 33.2267 120.325 33.4167 120.224 33.594C120.123 33.7713 119.971 33.9487 119.768 34.126C119.211 34.506 118.463 34.81 117.526 35.038C116.589 35.266 115.563 35.38 114.448 35.38C112.219 35.38 110.521 34.8227 109.356 33.708C108.216 32.568 107.646 30.8833 107.646 28.654V26.982C107.646 24.6767 108.203 22.9287 109.318 21.738C110.458 20.522 112.117 19.914 114.296 19.914C116.5 19.914 118.121 20.5473 119.16 21.814C119.591 22.346 119.933 23.0427 120.186 23.904C120.439 24.74 120.566 25.6393 120.566 26.602C120.566 27.2353 120.363 27.6913 119.958 27.97C119.553 28.2233 119.046 28.35 118.438 28.35H110.762ZM117.64 26.184C117.564 24.7653 117.273 23.7647 116.766 23.182C116.259 22.5993 115.436 22.308 114.296 22.308C113.131 22.308 112.269 22.6247 111.712 23.258C111.155 23.866 110.838 24.8413 110.762 26.184H117.64ZM128.772 35.342C127.302 35.342 126.213 34.81 125.504 33.746C125.149 33.1633 124.896 32.416 124.744 31.504C124.592 30.592 124.516 29.3 124.516 27.628V12.96C124.516 12.352 124.642 11.8833 124.896 11.554C125.174 11.2247 125.567 11.06 126.074 11.06C126.58 11.06 126.96 11.2247 127.214 11.554C127.492 11.8833 127.632 12.352 127.632 12.96V28.008C127.632 29.1227 127.67 29.9967 127.746 30.63C127.847 31.238 128.012 31.694 128.24 31.998C128.493 32.2767 128.835 32.4793 129.266 32.606C129.57 32.7073 129.798 32.8847 129.95 33.138C130.127 33.366 130.203 33.6827 130.178 34.088C130.178 34.468 130.038 34.772 129.76 35C129.506 35.228 129.177 35.342 128.772 35.342ZM134.648 13.34C135.205 13.34 135.649 13.5173 135.978 13.872C136.307 14.2267 136.472 14.7333 136.472 15.392C136.472 16 136.307 16.494 135.978 16.874C135.649 17.254 135.205 17.444 134.648 17.444C134.116 17.444 133.685 17.2667 133.356 16.912C133.027 16.532 132.862 16.0253 132.862 15.392C132.862 14.7333 133.027 14.2267 133.356 13.872C133.685 13.5173 134.116 13.34 134.648 13.34ZM133.09 33.442V21.89C133.09 21.282 133.217 20.8133 133.47 20.484C133.749 20.1547 134.141 19.99 134.648 19.99C135.155 19.99 135.535 20.1547 135.788 20.484C136.067 20.8133 136.206 21.282 136.206 21.89V33.442C136.206 34.0247 136.067 34.4933 135.788 34.848C135.535 35.1773 135.155 35.342 134.648 35.342C134.141 35.342 133.749 35.1773 133.47 34.848C133.217 34.4933 133.09 34.0247 133.09 33.442ZM143.948 21.51C144.556 20.9527 145.215 20.5473 145.924 20.294C146.659 20.0407 147.52 19.914 148.508 19.914C151.244 19.914 152.929 21.0413 153.562 23.296C153.689 23.6507 153.765 24.1447 153.79 24.778C153.841 25.4113 153.866 26.184 153.866 27.096V33.442C153.866 34.0247 153.727 34.4933 153.448 34.848C153.195 35.1773 152.815 35.342 152.308 35.342C151.802 35.342 151.409 35.1773 151.13 34.848C150.877 34.4933 150.75 34.0247 150.75 33.442V27.362C150.75 26.602 150.712 25.956 150.636 25.424C150.586 24.8667 150.497 24.436 150.37 24.132C149.94 23.144 149.104 22.65 147.862 22.65C147.229 22.65 146.659 22.764 146.152 22.992C145.646 23.1947 145.266 23.486 145.012 23.866C144.759 24.246 144.582 24.7273 144.48 25.31C144.379 25.8927 144.328 26.6907 144.328 27.704V33.442C144.328 34.0247 144.189 34.4933 143.91 34.848C143.632 35.1773 143.239 35.342 142.732 35.342C142.251 35.342 141.871 35.1773 141.592 34.848C141.314 34.4933 141.174 34.0247 141.174 33.442V21.396C141.174 20.8133 141.314 20.4333 141.592 20.256C141.896 20.0787 142.276 19.99 142.732 19.99C143.011 19.99 143.264 20.0913 143.492 20.294C143.746 20.4713 143.898 20.8767 143.948 21.51ZM160.785 28.35V28.958C160.785 30.2753 161.102 31.2507 161.735 31.884C162.369 32.492 163.357 32.796 164.699 32.796C165.434 32.796 166.143 32.72 166.827 32.568C167.511 32.416 168.119 32.188 168.651 31.884C168.854 31.7827 169.019 31.732 169.145 31.732C169.5 31.732 169.791 31.8587 170.019 32.112C170.273 32.3653 170.399 32.6693 170.399 33.024C170.399 33.2267 170.349 33.4167 170.247 33.594C170.146 33.7713 169.994 33.9487 169.791 34.126C169.234 34.506 168.487 34.81 167.549 35.038C166.612 35.266 165.586 35.38 164.471 35.38C162.242 35.38 160.545 34.8227 159.379 33.708C158.239 32.568 157.669 30.8833 157.669 28.654V26.982C157.669 24.6767 158.227 22.9287 159.341 21.738C160.481 20.522 162.141 19.914 164.319 19.914C166.523 19.914 168.145 20.5473 169.183 21.814C169.614 22.346 169.956 23.0427 170.209 23.904C170.463 24.74 170.589 25.6393 170.589 26.602C170.589 27.2353 170.387 27.6913 169.981 27.97C169.576 28.2233 169.069 28.35 168.461 28.35H160.785ZM167.663 26.184C167.587 24.7653 167.296 23.7647 166.789 23.182C166.283 22.5993 165.459 22.308 164.319 22.308C163.154 22.308 162.293 22.6247 161.735 23.258C161.178 23.866 160.861 24.8413 160.785 26.184H167.663ZM177.693 27.248L174.311 22.764C173.931 22.2827 173.741 21.8773 173.741 21.548C173.741 21.1173 173.893 20.7627 174.197 20.484C174.501 20.2053 174.856 20.066 175.261 20.066C175.743 20.066 176.186 20.332 176.591 20.864L180.087 25.386L183.355 20.864C183.735 20.3067 184.166 20.028 184.647 20.028C185.002 20.028 185.319 20.1673 185.597 20.446C185.876 20.7247 186.015 21.0287 186.015 21.358C186.015 21.662 185.851 22.042 185.521 22.498L181.759 27.476L185.673 32.568C186.028 33.024 186.205 33.4293 186.205 33.784C186.205 34.1893 186.053 34.544 185.749 34.848C185.471 35.1267 185.116 35.266 184.685 35.266C184.204 35.266 183.761 35 183.355 34.468L179.441 29.376L175.565 34.506C175.185 35.0127 174.78 35.266 174.349 35.266C173.969 35.266 173.64 35.1393 173.361 34.886C173.083 34.6073 172.943 34.2907 172.943 33.936C172.943 33.632 173.108 33.252 173.437 32.796L177.693 27.248Z"
    fill="#F26A1B" />
</svg>
