<svg width="14" height="14" viewBox="0 0 14 14" fill="none" xmlns="http://www.w3.org/2000/svg">
<g clip-path="url(#clip0_1222_2989)">
<path fill-rule="evenodd" clip-rule="evenodd" d="M11.8214 0.0977331C12.1097 -0.00751778 12.4219 -0.0287134 12.7219 0.0367172C13.0248 0.102803 13.3024 0.254481 13.5216 0.473719C13.7408 0.692957 13.8925 0.970537 13.9586 1.27346C14.024 1.57338 14.0028 1.88566 13.8976 2.17389L10.3236 12.8859C10.2365 13.1493 10.083 13.3867 9.8781 13.5739C9.6738 13.7606 9.42509 13.8917 9.15572 13.9549C8.8863 14.0206 8.60441 14.015 8.33774 13.9388C8.07131 13.8627 7.82926 13.7187 7.63529 13.5209L5.71795 11.6123L3.70389 12.6538C3.54684 12.735 3.35857 12.7272 3.20874 12.6333C3.05892 12.5395 2.96981 12.3734 2.9744 12.1967L3.05697 9.01294L10.1019 3.89553C10.3812 3.69267 10.4432 3.30182 10.2403 3.02255C10.0374 2.74327 9.64659 2.68133 9.36731 2.88419L2.20283 8.0884L0.473125 6.35869C0.285802 6.1715 0.147716 5.94054 0.0716193 5.68688C-0.00393617 5.43503 -0.0162115 5.16847 0.0358379 4.91079C0.0879545 4.62928 0.213796 4.36658 0.400577 4.14951C0.588637 3.93095 0.83165 3.76658 1.1045 3.67339L1.10787 3.67224L11.8214 0.0977331Z" fill="black"/>
</g>
<defs>
<clipPath id="clip0_1222_2989">
<rect width="14" height="14" fill="white"/>
</clipPath>
</defs>
</svg>
