<svg width="32" height="32" viewBox="0 0 32 32" fill="none" xmlns="http://www.w3.org/2000/svg">
<path fill-rule="evenodd" clip-rule="evenodd" d="M29.595 2.31384C30.1518 0.998293 30.1513 0.998041 30.1506 0.997779L30.1458 0.995815L30.1374 0.992238L30.1122 0.981909C30.0919 0.97366 30.0647 0.962736 30.0306 0.949497C29.9627 0.923027 29.8677 0.887246 29.7481 0.845049C29.509 0.760736 29.1703 0.650309 28.7497 0.537244C27.9118 0.311929 26.7335 0.071563 25.3669 0.013216C22.6302 -0.103633 19.0565 0.513264 16.044 3.51987C14.9003 4.62609 13.7625 6.21322 12.6522 7.96271C10.5828 6.96175 8.52213 6.90899 6.57063 7.53069C4.29673 8.25507 2.26974 9.86054 0.534894 11.6416C0.230565 11.9541 0.0856427 12.3884 0.141399 12.821C0.197155 13.2536 0.447479 13.637 0.821088 13.8621L8.11499 18.256L13.6523 23.7934L18.0466 31.0878C18.2716 31.4615 18.655 31.7118 19.0876 31.7676C19.5202 31.8233 19.9546 31.6784 20.267 31.374C22.0481 29.6391 23.6535 27.6121 24.3781 25.3383C24.9998 23.3861 24.947 21.3248 23.9451 19.2548C25.6944 18.146 27.2809 17.0103 28.3888 15.8648C31.3954 12.8523 32.0123 9.27859 31.8955 6.54184C31.8373 5.1753 31.5968 3.9969 31.3714 3.15903C31.2585 2.73859 31.1481 2.39965 31.0638 2.16063C31.0215 2.04102 30.9858 1.94608 30.9593 1.87812C30.9461 1.84413 30.9351 1.81685 30.9269 1.79657L30.9166 1.77142L30.9129 1.76284L30.9115 1.75956C30.9111 1.75894 30.9104 1.75696 29.595 2.31384ZM29.595 2.31384L30.1506 0.997779C30.4926 1.14249 30.7657 1.4151 30.9104 1.75696L29.595 2.31384ZM21.4464 17.4435C21.3623 17.4795 21.2804 17.5241 21.202 17.5777C21.1671 17.6015 21.1336 17.6266 21.1014 17.6528C20.9537 17.742 20.8046 17.8315 20.6544 17.9211L13.9853 11.2521C14.071 11.1087 14.157 10.9655 14.2435 10.8224C14.2743 10.7857 14.3036 10.7471 14.3312 10.7067C14.3883 10.6231 14.4352 10.5356 14.4724 10.4456C15.7698 8.32319 16.9591 6.60726 18.0371 5.56701L18.0554 5.54913C20.3368 3.26767 23.0336 2.77334 25.245 2.86776C26.3541 2.9151 27.32 3.11142 28.0078 3.29635C28.1842 3.34378 28.341 3.39016 28.4761 3.43258C28.5186 3.56769 28.565 3.72463 28.6123 3.90102C28.7973 4.58874 28.9936 5.55482 29.0409 6.66371C29.1355 8.87519 28.6411 11.572 26.3595 13.8534L26.3417 13.8716C25.2976 14.9537 23.5778 16.1428 21.4464 17.4435ZM21.1805 20.9286C21.1592 20.9419 21.1375 20.9545 21.1156 20.9666C20.4708 21.3439 19.8147 21.7221 19.1586 22.1L18.9816 22.2019C18.2482 22.6242 17.5154 23.0462 16.7926 23.4693L19.5244 28.0041C20.5349 26.8306 21.2809 25.6473 21.6556 24.4711C22.0326 23.2878 22.0531 22.0606 21.4874 20.7484L21.1805 20.9286ZM11.1576 10.42C9.84654 9.85553 8.62027 9.87635 7.43787 10.253C6.2616 10.6278 5.07833 11.3738 3.90482 12.3843L8.43787 15.115C8.82649 14.4489 9.22393 13.7588 9.62229 13.0671C10.1383 12.171 10.6559 11.2724 11.1576 10.42ZM1.14288 30.766C0.0205816 30.5502 0.0206035 30.55 0.0206298 30.55L0.0217002 30.5442L0.0244798 30.5301L0.0349323 30.4768C0.0440446 30.4309 0.0574101 30.3641 0.0747833 30.2791C0.109519 30.1093 0.16034 29.8663 0.225287 29.571C0.354942 28.9817 0.542018 28.1792 0.770928 27.331C0.998757 26.4869 1.27354 25.5769 1.58104 24.7806C1.86824 24.0368 2.24459 23.2247 2.73602 22.7114C3.15328 22.2654 3.65566 21.9076 4.21355 21.659C4.77433 21.4091 5.37966 21.2748 5.99346 21.264C6.60727 21.2531 7.21698 21.366 7.78619 21.596C8.35543 21.8259 8.8725 22.1681 9.30661 22.6022C9.74069 23.0364 10.0829 23.5534 10.3128 24.1225C10.5427 24.6919 10.6557 25.3015 10.6448 25.9154C10.634 26.5292 10.4997 27.1344 10.2498 27.6953C10.0012 28.253 9.64336 28.7554 9.19742 29.1728C8.68414 29.6642 7.87186 30.0405 7.12816 30.3278C6.33186 30.6352 5.42194 30.91 4.57781 31.1378C3.72967 31.3669 2.92702 31.5538 2.33774 31.6834C2.04257 31.7484 1.79964 31.7993 1.62973 31.8341C1.54475 31.8514 1.47795 31.8647 1.43193 31.8738L1.37879 31.8844L1.36449 31.8871L1.36052 31.8878C1.36038 31.8878 1.3587 31.8882 1.14288 30.766ZM1.14288 30.766L1.36052 31.8878C0.988222 31.9593 0.602832 31.8421 0.334752 31.574C0.0666743 31.3061 -0.050966 30.9221 0.0206298 30.55L1.14288 30.766ZM24 5.62323C22.7376 5.62323 21.7143 6.64657 21.7143 7.90895C21.7143 9.1713 22.7376 10.1947 24 10.1947C25.2624 10.1947 26.2857 9.1713 26.2857 7.90895C26.2857 6.64657 25.2624 5.62323 24 5.62323Z" fill="#F26A1B"/>
</svg>
