<svg width="28" height="33" viewBox="0 0 28 33" fill="none" xmlns="http://www.w3.org/2000/svg">
<path fill-rule="evenodd" clip-rule="evenodd" d="M2.85714 4.11419C2.85714 3.64079 3.24089 3.25705 3.71429 3.25705H24.2857C24.7591 3.25705 25.1429 3.64079 25.1429 4.11419V24.3999H2.85714V4.11419ZM3.71429 0.399902C1.66295 0.399902 0 2.06284 0 4.11419V28.6856C0 30.737 1.66295 32.3999 3.71429 32.3999H24.2857C26.3371 32.3999 28 30.737 28 28.6856V4.11419C28 2.06284 26.3371 0.399902 24.2857 0.399902H3.71429ZM10.3547 9.09204C9.63456 9.48219 8.84016 10.2793 8.25666 11.1042C7.7099 11.8771 6.64007 12.0605 5.86713 11.5137C5.09419 10.9669 4.91086 9.89709 5.45762 9.12415C6.21145 8.05849 7.37072 6.80923 8.72158 6.07741C9.40809 5.7055 10.2467 5.41195 11.1645 5.44418C12.1315 5.47812 13.0377 5.87037 13.7836 6.61627C15.0921 7.92473 14.7831 9.63727 14.4122 10.7146C14.0404 11.7949 13.3681 12.9518 12.8107 13.911L12.7356 14.0403C12.1216 15.0979 11.6654 15.9094 11.4615 16.5374C11.5562 16.4897 11.6715 16.4231 11.8088 16.3309C12.5132 15.8577 13.308 15.0549 14.2663 14.0662L14.3811 13.9477C15.2336 13.0675 16.2335 12.0352 17.221 11.3531C18.2019 10.6757 19.8761 9.87602 21.5223 10.9735C22.1189 11.3712 22.5979 11.9082 22.8517 12.6007C23.0994 13.2764 23.0709 13.9315 22.9609 14.4679C22.7845 15.3273 22.3083 16.2154 21.9749 16.8373L21.9737 16.8395C21.9337 16.9138 21.896 16.9843 21.861 17.0505C21.4437 17.84 21.2565 18.2888 21.2306 18.5951C21.2261 18.6496 21.2293 18.6798 21.2313 18.6924C21.2331 18.7031 21.2352 18.7081 21.2382 18.7141C21.2414 18.7204 21.2896 18.8183 21.5223 18.9735C22.3102 19.4987 22.523 20.563 21.9977 21.3508C21.4727 22.1386 20.4083 22.3514 19.6205 21.8262C18.9981 21.4113 18.4907 20.8898 18.1679 20.2402C17.842 19.5846 17.7626 18.9163 17.8142 18.306C17.9085 17.1923 18.4656 16.1372 18.83 15.448L18.8838 15.3462C19.2411 14.6707 19.46 14.2568 19.5604 13.9376C19.4669 13.9834 19.339 14.0571 19.1694 14.1743C18.4783 14.6516 17.6934 15.4567 16.7281 16.4525L16.6947 16.487C15.8177 17.3918 14.7723 18.4704 13.7209 19.1768C12.6875 19.8711 11.0272 20.6045 9.37378 19.5658C8.63797 19.1035 8.16674 18.4159 8.00546 17.6027C7.85998 16.8691 7.99134 16.1618 8.16242 15.5995C8.48935 14.5252 9.17317 13.3476 9.73429 12.3812L9.77042 12.319C10.4009 11.2329 10.9145 10.3418 11.1704 9.5986C11.2882 9.25638 11.3089 9.07469 11.3075 8.99195C11.1807 8.88079 11.1015 8.87263 11.0442 8.87062C10.9301 8.86662 10.7038 8.90294 10.3547 9.09204ZM11.2978 8.93446C11.2995 8.93305 11.3041 8.9429 11.3063 8.96825C11.2972 8.94857 11.2961 8.93588 11.2978 8.93446ZM19.7762 13.8691C19.7746 13.8725 19.757 13.8767 19.728 13.872C19.7633 13.8634 19.7778 13.8658 19.7762 13.8691Z" fill="#F26A1B"/>
</svg>
