<svg width="32" height="28" viewBox="0 0 32 28" fill="none" xmlns="http://www.w3.org/2000/svg">
<path fill-rule="evenodd" clip-rule="evenodd" d="M16.0093 24.4484L4.63548 14.0026C1.96109 11.264 2.52658 7.20894 4.86551 4.85417C6.00462 3.70734 7.49854 3.05081 9.14224 3.17159C10.7871 3.29241 12.8059 4.20999 14.9314 6.65347C15.2027 6.96537 15.5959 7.14446 16.0093 7.14446C16.4227 7.14446 16.8158 6.96537 17.0871 6.65347C19.2128 4.20981 21.2281 3.29603 22.8679 3.17813C24.5065 3.0603 25.9966 3.71909 27.1342 4.86915C29.4734 7.2336 30.0322 11.2894 27.3831 14.0026L16.0093 24.4484ZM9.35159 0.322117C11.5679 0.48494 13.8442 1.54755 16.0093 3.63968C18.1738 1.54825 20.4482 0.487596 22.6629 0.328346C25.2496 0.142337 27.5278 1.20435 29.1655 2.85977C32.3703 6.09939 33.3943 11.9766 29.3938 16.0328C29.3771 16.0496 29.3602 16.066 29.3431 16.0819L16.9756 27.4402C16.4291 27.9421 15.5894 27.9421 15.043 27.4402L2.67559 16.0819C2.65826 16.066 2.64133 16.0496 2.6248 16.0328C-1.39538 11.9567 -0.377798 6.0787 2.8384 2.84069C4.48025 1.18771 6.76293 0.131939 9.35159 0.322117ZM15.1696 9.1688C14.9364 8.70245 14.4677 8.40016 13.9467 8.38016C13.4257 8.36014 12.9351 8.62558 12.6669 9.07269L10.7259 12.3077H8.03472C7.24574 12.3077 6.60615 12.9473 6.60615 13.7363C6.60615 14.5252 7.24574 15.1648 8.03472 15.1648H11.5347C12.0365 15.1648 12.5015 14.9015 12.7597 14.4712L13.7779 12.7742L16.1855 17.5894C16.3935 18.0053 16.7907 18.2939 17.2505 18.3632C17.7102 18.4324 18.1749 18.2736 18.4961 17.9375L21.1456 15.1648H23.9632C24.7522 15.1648 25.3918 14.5252 25.3918 13.7363C25.3918 12.9473 24.7522 12.3077 23.9632 12.3077H20.5347C20.1446 12.3077 19.7714 12.4672 19.5019 12.7493L17.8331 14.4957L15.1696 9.1688Z" fill="#F26A1B"/>
</svg>
