<svg width="32" height="30" viewBox="0 0 32 30" fill="none" xmlns="http://www.w3.org/2000/svg">
<path fill-rule="evenodd" clip-rule="evenodd" d="M2.85714 2.85714V21.1429H29.1429V2.85714H2.85714ZM0 2.57143C0 1.15127 1.15127 0 2.57143 0H29.4286C30.8487 0 32 1.15127 32 2.57143V21.4286C32 22.8487 30.8487 24 29.4286 24H19.9738L21.2309 27.1429H22.8571C23.6462 27.1429 24.2857 27.7824 24.2857 28.5714C24.2857 29.3605 23.6462 30 22.8571 30H9.14286C8.35387 30 7.71429 29.3605 7.71429 28.5714C7.71429 27.7824 8.35387 27.1429 9.14286 27.1429H10.7691L12.0262 24H2.57143C1.15127 24 0 22.8487 0 21.4286V2.57143ZM11.2154 9.94181C11.8144 9.42834 11.8838 8.52647 11.3704 7.92745C10.8569 7.32841 9.95504 7.25904 9.35602 7.77248L5.35602 11.2011C5.03675 11.4747 4.85426 11.8751 4.85719 12.2956C4.86009 12.7161 5.04814 13.114 5.37115 13.3832L8.79973 16.2403C9.40585 16.7454 10.3067 16.6635 10.8117 16.0574C11.3168 15.4513 11.2349 14.5505 10.6288 14.0454L8.49877 12.2704L11.2154 9.94181ZM21.1883 7.94258C21.6934 7.33648 22.5941 7.25458 23.2002 7.75968L26.6288 10.6168C26.9518 10.886 27.1399 11.2839 27.1429 11.7044C27.1458 12.1249 26.9632 12.5253 26.6439 12.7989L22.644 16.2275C22.045 16.741 21.1431 16.6716 20.6296 16.0725C20.1162 15.4735 20.1856 14.5717 20.7846 14.0582L23.5013 11.7296L21.3712 9.95461C20.7651 9.44951 20.6832 8.54871 21.1883 7.94258ZM19.0696 7.30889C19.319 6.56041 18.9145 5.75138 18.166 5.50187C17.4176 5.25239 16.6085 5.65689 16.359 6.40539L12.9304 16.6911C12.681 17.4396 13.0855 18.2486 13.834 18.4981C14.5824 18.7476 15.3915 18.3431 15.641 17.5946L19.0696 7.30889Z" fill="#F26A1B"/>
</svg>
