<svg width="32" height="32" viewBox="0 0 32 32" fill="none" xmlns="http://www.w3.org/2000/svg">
<path fill-rule="evenodd" clip-rule="evenodd" d="M14.8572 2.85715C8.22975 2.85715 2.85715 8.22975 2.85715 14.8572C2.85715 21.4846 8.22975 26.8572 14.8572 26.8572C21.4846 26.8572 26.8572 21.4846 26.8572 14.8572C26.8572 8.22975 21.4846 2.85715 14.8572 2.85715ZM0 14.8572C0 6.65178 6.65178 0 14.8572 0C23.0627 0 29.7143 6.65178 29.7143 14.8572C29.7143 18.2389 28.5845 21.3567 26.6816 23.8538L31.4142 28.5863C32.1953 29.3674 32.1953 30.6337 31.4142 31.4149C30.6332 32.1959 29.3669 32.1959 28.5859 31.4149L23.8533 26.6821C21.3562 28.5847 18.2386 29.7143 14.8572 29.7143C6.65178 29.7143 0 23.0627 0 14.8572ZM16.7165 7.79364C16.2633 5.77318 13.401 5.7876 12.9656 7.81L12.9161 8.03999C12.366 10.5957 10.3546 12.5431 7.84557 12.9869C5.76577 13.3549 5.76579 16.3595 7.84557 16.7274C10.3546 17.1713 12.366 19.1187 12.9161 21.6744L12.9656 21.9044C13.401 23.9267 16.2633 23.9411 16.7165 21.9207L16.7767 21.6527C17.3477 19.107 19.3611 17.1743 21.8656 16.7312C23.9495 16.3625 23.9495 13.3518 21.8656 12.9831C19.3611 12.5401 17.3477 10.6074 16.7767 8.06166L16.7165 7.79364Z" fill="#F26A1B"/>
</svg>
