<svg width="32" height="32" viewBox="0 0 32 32" fill="none" xmlns="http://www.w3.org/2000/svg">
<path d="M16 32C7.16345 32 0 24.8366 0 16C0 7.16345 7.16345 0 16 0C24.8366 0 32 7.16345 32 16C32 24.8366 24.8366 32 16 32Z" fill="#F26A1B"/>
<path fill-rule="evenodd" clip-rule="evenodd" d="M15.9999 2.85544C8.74053 2.85544 2.85568 8.74024 2.85568 15.9995C2.85568 23.2587 8.74053 29.1435 15.9999 29.1435C22.2134 29.1435 27.4231 24.8308 28.7924 19.034C28.9737 18.2661 29.7433 17.7907 30.5111 17.9721C31.2791 18.1535 31.7545 18.923 31.573 19.6908C29.906 26.7479 23.5682 32.0007 15.9999 32.0007C7.16259 32.0007 -0.00146484 24.8368 -0.00146484 15.9995C-0.00146484 7.16225 7.16259 -0.00170898 15.9999 -0.00170898C20.9071 -0.00170898 25.2967 2.20709 28.2311 5.68248L29.5625 4.35105C29.9712 3.94248 30.5856 3.82026 31.1193 4.04138C31.6532 4.26248 32.0013 4.78339 32.0013 5.3612V10.3946C32.0013 11.1836 31.3616 11.8232 30.5728 11.8232H29.4891C29.4784 11.8234 29.4679 11.8236 29.4573 11.8236C29.4461 11.8236 29.435 11.8235 29.4238 11.8232H25.5392C24.9614 11.8232 24.4404 11.4751 24.2194 10.9413C23.9984 10.4075 24.1204 9.79304 24.5291 9.38447L26.2023 7.71119C23.7915 4.74728 20.1157 2.85544 15.9999 2.85544ZM18.0002 7.99997C18.0002 6.89539 17.1048 5.99997 16.0002 5.99997C14.8956 5.99997 14.0002 6.89539 14.0002 7.99997V16C14.0002 17.1045 14.8956 18 16.0002 18H21.7145C22.8191 18 23.7145 17.1045 23.7145 16C23.7145 14.8954 22.8191 14 21.7145 14H18.0002V7.99997Z" fill="#26303C"/>
</svg>
