<svg width="33" height="32" viewBox="0 0 33 32" fill="none" xmlns="http://www.w3.org/2000/svg">
<path d="M21.19 11.1428C23.7664 11.1428 26.2372 12.1663 28.0589 13.9881C29.8809 15.8099 30.9042 18.2807 30.9042 20.8571C30.9104 22.7692 30.3451 24.6397 29.2813 26.2285L30.9042 30.5714L25.4413 29.5885C24.1275 30.2292 22.6862 30.5652 21.2245 30.5714C19.7629 30.5776 18.3187 30.2537 16.9995 29.6242C15.6804 28.9947 14.5203 28.0754 13.6057 26.9353C12.6912 25.7952 12.0457 24.4633 11.7174 23.0388C11.3891 21.6146 11.3865 20.1345 11.7097 18.709C12.0329 17.2835 12.6737 15.9494 13.5842 14.8059C14.4946 13.6625 15.6514 12.7392 16.9684 12.105C18.2852 11.4708 19.7283 11.1419 21.19 11.1428Z" fill="#F26A1B"/>
<path fill-rule="evenodd" clip-rule="evenodd" d="M13.7621 2.08731e-06C15.783 -0.00112456 17.778 0.453852 19.5985 1.33103C21.4192 2.20826 23.0184 3.48512 24.2768 5.06642C24.9242 5.87982 25.4727 6.76297 25.9136 7.69714C24.4325 7.15413 22.8397 6.85689 21.1865 6.85659C14.7072 6.85353 8.95853 11.4408 7.52548 17.7606C6.91049 20.4729 7.1503 23.2405 8.08678 25.7367L2.01677 26.8343C1.51081 26.9259 0.994723 26.7383 0.665429 26.3435C0.336136 25.9486 0.244444 25.4073 0.425342 24.9259L2.18928 20.2329C1.08859 18.3602 0.456693 16.2449 0.352957 14.0677C0.237351 11.6414 0.782019 9.22919 1.92895 7.08798C3.07588 4.94677 4.7821 3.15673 6.86592 1.90854C8.94962 0.66043 11.3332 0.000836603 13.7621 2.08731e-06Z" fill="#26303C"/>
<path fill-rule="evenodd" clip-rule="evenodd" d="M21.1889 12.5715C19.9422 12.5707 18.7113 12.8512 17.5881 13.3922C16.4649 13.9331 15.4782 14.7206 14.7016 15.6959C13.925 16.6712 13.3785 17.8092 13.1028 19.025C12.8271 20.2409 12.8293 21.5033 13.1093 22.7182C13.3894 23.9331 13.9399 25.0691 14.72 26.0414C15.5 27.014 16.4895 27.798 17.6147 28.3349C18.7398 28.8721 19.9717 29.1482 21.2184 29.1429C22.4651 29.1377 23.6945 28.851 24.8152 28.3045C25.0878 28.1717 25.3957 28.129 25.6942 28.1827L28.6876 28.7212L27.9432 26.7288C27.782 26.2979 27.8382 25.8161 28.0942 25.4339C28.9996 24.0814 29.4808 22.4894 29.4755 20.8617V20.8572C29.4755 18.6597 28.6026 16.5522 27.0488 14.9983C25.4949 13.4445 23.3863 12.5715 21.1889 12.5715C21.1892 12.5715 21.1886 12.5715 21.1889 12.5715ZM21.1908 9.71436C24.1457 9.71461 26.9795 10.8886 29.0691 12.978C31.1582 15.0671 32.332 17.9003 32.3326 20.8547C32.3386 22.7996 31.83 24.7068 30.8648 26.3852L32.2424 30.0714C32.422 30.5523 32.3299 31.0929 32.0008 31.4869C31.6718 31.8812 31.1564 32.0684 30.6513 31.9774L25.6305 31.0741C24.2435 31.678 22.7464 31.9937 21.2304 32.0001C19.5538 32.0072 17.8972 31.6357 16.3841 30.9134C14.8709 30.1914 13.5403 29.1372 12.4912 27.8293C11.4422 26.5214 10.7018 24.9937 10.3252 23.3598C9.94864 21.7261 9.94562 20.0283 10.3164 18.3932C10.6871 16.7581 11.4221 15.2277 12.4665 13.9161C13.5109 12.6045 14.8378 11.5455 16.3483 10.818C17.8586 10.0906 19.5145 9.7134 21.1908 9.71436ZM32.3326 20.8547C32.3326 20.8555 32.3326 20.8564 32.3326 20.8572H30.9041L32.3326 20.8547C32.3326 20.854 32.3326 20.8554 32.3326 20.8547Z" fill="#26303C"/>
</svg>
