<svg width="33" height="28" viewBox="0 0 33 28" fill="none" xmlns="http://www.w3.org/2000/svg">
<path d="M16.6763 26.0879L4.30892 14.7295C-2.41247 7.91448 7.46799 -5.17035 16.6763 5.41564C25.8845 -5.17035 35.7202 7.95989 29.0436 14.7295L16.6763 26.0879Z" fill="#F26A1B"/>
<path fill-rule="evenodd" clip-rule="evenodd" d="M16.6763 24.1483L5.30247 13.7025C2.62808 10.9639 3.19358 6.90889 5.5325 4.55413C6.67161 3.40729 8.16553 2.75077 9.80923 2.87154C11.4541 2.99237 13.4729 3.90994 15.5984 6.35342C15.8697 6.66533 16.2629 6.84441 16.6763 6.84441C17.0897 6.84441 17.4828 6.66533 17.7541 6.35342C19.8797 3.90976 21.8951 2.99598 23.5349 2.87808C25.1735 2.76025 26.6635 3.41904 27.8011 4.5691C30.1403 6.93355 30.6992 10.9893 28.0501 13.7025L16.6763 24.1483ZM10.0186 0.0220686C12.2349 0.184891 14.5112 1.2475 16.6763 3.33963C18.8408 1.24821 21.1152 0.187548 23.3299 0.0282972C25.9166 -0.157712 28.1947 0.904297 29.8325 2.55973C33.0373 5.79934 34.0613 11.6765 30.0608 15.7328C30.0441 15.7496 30.0272 15.7659 30.0101 15.7818L17.6426 27.1401C17.0961 27.6421 16.2564 27.6421 15.7099 27.1401L3.34258 15.7818C3.32526 15.7659 3.30832 15.7496 3.29179 15.7328C-0.728385 11.6566 0.289195 5.77865 3.50539 2.54064C5.14725 0.887657 7.42992 -0.16811 10.0186 0.0220686ZM15.8366 8.86876C15.6034 8.4024 15.1347 8.10011 14.6137 8.08011C14.0927 8.06009 13.6021 8.32553 13.3339 8.77264L11.3929 12.0076H8.70171C7.91273 12.0076 7.27314 12.6472 7.27314 13.4362C7.27314 14.2252 7.91273 14.8648 8.70171 14.8648H12.2017C12.7035 14.8648 13.1685 14.6015 13.4267 14.1712L14.4449 12.4741L16.8525 17.2893C17.0605 17.7052 17.4577 17.9939 17.9175 18.0631C18.3772 18.1324 18.8419 17.9736 19.1631 17.6374L21.8125 14.8648H24.6302C25.4192 14.8648 26.0587 14.2252 26.0587 13.4362C26.0587 12.6472 25.4192 12.0076 24.6302 12.0076H21.2017C20.8116 12.0076 20.4384 12.1672 20.1689 12.4493L18.5001 14.1957L15.8366 8.86876Z" fill="#26303C"/>
</svg>
